<svg id="Слой_1" data-name="Слой 1" xmlns="http://www.w3.org/2000/svg" xmlns:xlink="http://www.w3.org/1999/xlink" viewBox="0 0 636.56 411.35"><defs><style>.cls-1{fill:url(#linear-gradient);}.cls-2{fill:url(#linear-gradient-2);}.cls-3{fill:url(#linear-gradient-3);}.cls-4{fill:url(#linear-gradient-4);}.cls-5{fill:url(#linear-gradient-5);}.cls-6{fill:url(#linear-gradient-6);}.cls-7{fill:url(#linear-gradient-7);}.cls-8{fill:url(#linear-gradient-8);}.cls-9{fill:url(#linear-gradient-9);}.cls-10{fill:url(#linear-gradient-10);}.cls-11{fill:url(#linear-gradient-11);}.cls-12{fill:url(#linear-gradient-12);}.cls-13{fill:url(#linear-gradient-13);}.cls-14{fill:url(#linear-gradient-14);}.cls-15{fill:url(#linear-gradient-15);}.cls-16{fill:url(#linear-gradient-16);}.cls-17{fill:url(#linear-gradient-17);}.cls-18{fill:url(#linear-gradient-18);}.cls-19{fill:url(#linear-gradient-19);}.cls-20{fill:url(#linear-gradient-20);}.cls-21{fill:url(#linear-gradient-21);}.cls-22{fill:url(#linear-gradient-22);}.cls-23{fill:url(#linear-gradient-23);}.cls-24{fill:url(#linear-gradient-24);}.cls-25{fill:url(#linear-gradient-25);}.cls-26{fill:url(#linear-gradient-26);}.cls-27{fill:url(#linear-gradient-27);}.cls-28{fill:#ff7759;}.cls-29{fill:#ff6a59;}.cls-30{fill:url(#linear-gradient-28);}.cls-31{fill:url(#linear-gradient-29);}.cls-32{fill:url(#linear-gradient-30);}.cls-33{opacity:0.95;fill:url(#linear-gradient-31);}.cls-34{fill:#ff5458;}.cls-35{fill:url(#linear-gradient-32);}.cls-36{fill:#38d2e0;}.cls-37{fill:#eea886;}.cls-38{fill:#db9c7c;}.cls-39{fill:#323657;}.cls-40{fill:#424773;}.cls-41{fill:#292c47;}.cls-42{fill:#e2d2ca;}.cls-43{fill:#efaa88;}.cls-44{fill:#cf8c6c;}.cls-45{fill:#eb4747;}.cls-46{fill:#23344a;}.cls-47{fill:#9e4cc7;}.cls-48{fill:#3f74a0;}.cls-49{fill:#5b83c2;}.cls-50{fill:#ad3434;}.cls-51{fill:#b06e2a;}.cls-52{fill:#223247;}.cls-53{fill:#faa146;}.cls-54{fill:#5b2c73;}.cls-55{fill:#f0ddd5;}.cls-56{fill:#a77860;}.cls-57{fill:#ff4d4d;}.cls-58{fill:#c43b3b;}.cls-59{fill:#eeecf0;}.cls-60{fill:#78c2ff;}.cls-61{fill:#e6e6e6;}</style><linearGradient id="linear-gradient" x1="107.27" y1="199.5" x2="445.26" y2="199.5" gradientUnits="userSpaceOnUse"><stop offset="0" stop-color="#a246c4"/><stop offset="1" stop-color="#5eafff"/></linearGradient><linearGradient id="linear-gradient-2" x1="505.43" y1="270.97" x2="563.11" y2="270.97" gradientUnits="userSpaceOnUse"><stop offset="0.01" stop-color="#595959"/><stop offset="1" stop-color="#fff"/></linearGradient><linearGradient id="linear-gradient-3" x1="550.06" y1="270.97" x2="607.74" y2="270.97" xlink:href="#linear-gradient-2"/><linearGradient id="linear-gradient-4" x1="593.36" y1="267.68" x2="625.19" y2="267.68" gradientUnits="userSpaceOnUse"><stop offset="0.01" stop-color="#b3b3b3"/><stop offset="1" stop-color="#fff"/></linearGradient><linearGradient id="linear-gradient-5" x1="547.77" y1="280.69" x2="564.33" y2="280.69" xlink:href="#linear-gradient-4"/><linearGradient id="linear-gradient-6" x1="547.77" y1="280.69" x2="559.82" y2="280.69" xlink:href="#linear-gradient-2"/><linearGradient id="linear-gradient-7" x1="497.4" y1="367.83" x2="497.4" y2="275.1" gradientUnits="userSpaceOnUse"><stop offset="0" stop-color="#40d5e6"/><stop offset="1" stop-color="#57f"/></linearGradient><linearGradient id="linear-gradient-8" x1="423.32" y1="252.7" x2="571.47" y2="252.7" xlink:href="#linear-gradient-7"/><linearGradient id="linear-gradient-9" x1="519.91" y1="290.72" x2="473.4" y2="290.72" xlink:href="#linear-gradient-4"/><linearGradient id="linear-gradient-10" x1="620.08" y1="308.28" x2="643.05" y2="308.28" gradientUnits="userSpaceOnUse"><stop offset="0" stop-color="#1f3073"/><stop offset="1" stop-color="#4e6cde"/></linearGradient><linearGradient id="linear-gradient-11" x1="608.84" y1="311.09" x2="643.05" y2="311.09" gradientUnits="userSpaceOnUse"><stop offset="0" stop-color="#7c3596"/><stop offset="1" stop-color="#3098ff"/></linearGradient><linearGradient id="linear-gradient-12" x1="605.15" y1="319.63" x2="626.65" y2="298.63" gradientUnits="userSpaceOnUse"><stop offset="0" stop-color="#354996"/><stop offset="1" stop-color="#4e6cde"/></linearGradient><linearGradient id="linear-gradient-13" x1="650.38" y1="308.28" x2="673.35" y2="308.28" xlink:href="#linear-gradient-10"/><linearGradient id="linear-gradient-14" x1="650.38" y1="311.09" x2="684.6" y2="311.09" xlink:href="#linear-gradient-11"/><linearGradient id="linear-gradient-15" x1="646.67" y1="319.16" x2="646.17" y2="313.07" xlink:href="#linear-gradient-12"/><linearGradient id="linear-gradient-16" x1="589.41" y1="331.23" x2="589.41" y2="281.24" gradientUnits="userSpaceOnUse"><stop offset="0" stop-color="#ffc05c"/><stop offset="1" stop-color="#ff3857"/></linearGradient><linearGradient id="linear-gradient-17" x1="589.41" y1="304.01" x2="589.41" y2="248.88" xlink:href="#linear-gradient-16"/><linearGradient id="linear-gradient-18" x1="589.41" y1="347.28" x2="589.41" y2="251.66" xlink:href="#linear-gradient-11"/><linearGradient id="linear-gradient-19" x1="91.41" y1="150.74" x2="178.32" y2="150.74" xlink:href="#linear-gradient-7"/><linearGradient id="linear-gradient-20" x1="-5804.13" y1="2297.03" x2="-5804.13" y2="2213.06" gradientTransform="matrix(-0.78, 0.62, 0.62, 0.78, -5797.52, 2018.73)" xlink:href="#linear-gradient-7"/><linearGradient id="linear-gradient-21" x1="57.31" y1="223.22" x2="208.13" y2="223.22" xlink:href="#linear-gradient-7"/><linearGradient id="linear-gradient-22" x1="-3089.35" y1="2010.26" x2="-3089.35" y2="1906.77" gradientTransform="matrix(-0.56, 0.83, 0.83, 0.56, -3192.71, 1700.89)" xlink:href="#linear-gradient-7"/><linearGradient id="linear-gradient-23" x1="3930.79" y1="-5628.72" x2="3975.5" y2="-5692.91" gradientTransform="translate(-6313.81 1340.69) rotate(45)" xlink:href="#linear-gradient-7"/><linearGradient id="linear-gradient-24" x1="-11908.6" y1="-636.67" x2="-11863.89" y2="-700.86" gradientTransform="matrix(-0.99, -0.12, -0.12, 0.99, -11788.26, -1350.61)" xlink:href="#linear-gradient-7"/><linearGradient id="linear-gradient-25" x1="522.14" y1="212.18" x2="569.31" y2="17.17" xlink:href="#linear-gradient-7"/><linearGradient id="linear-gradient-26" x1="495.42" y1="201.9" x2="581.69" y2="115.63" xlink:href="#linear-gradient-7"/><linearGradient id="linear-gradient-27" x1="87.26" y1="214.72" x2="470.71" y2="214.72" xlink:href="#linear-gradient-16"/><linearGradient id="linear-gradient-28" x1="31.49" y1="133.82" x2="356.25" y2="133.82" xlink:href="#linear-gradient-16"/><linearGradient id="linear-gradient-29" x1="31.49" y1="116.46" x2="356.25" y2="116.46" xlink:href="#linear-gradient-16"/><linearGradient id="linear-gradient-30" x1="31.49" y1="156.43" x2="356.25" y2="156.43" xlink:href="#linear-gradient-16"/><linearGradient id="linear-gradient-31" x1="427.02" y1="255.88" x2="144.15" y2="255.88" gradientUnits="userSpaceOnUse"><stop offset="0" stop-color="#edf4ff"/><stop offset="1" stop-color="#edfffe"/></linearGradient><linearGradient id="linear-gradient-32" x1="336.29" y1="128.1" x2="336.29" y2="79.57" xlink:href="#linear-gradient-11"/></defs><rect class="cls-1" x="127.79" y="53.94" width="302.39" height="291.12"/><path class="cls-2" d="M559.81,283.11S543.39,238,505.43,249.84c0,0,32,5.14,48.45,32S559.81,283.11,559.81,283.11Z" transform="translate(-57.31 -44.33)"/><path class="cls-3" d="M553.36,283.11s16.42-45.14,54.38-33.27c0,0-32,5.14-48.45,32S553.36,283.11,553.36,283.11Z" transform="translate(-57.31 -44.33)"/><path class="cls-4" d="M593.36,247.91s25.75-2.65,1,38l13.4,1.56S655.3,245.84,593.36,247.91Z" transform="translate(-57.31 -44.33)"/><path class="cls-5" d="M564.33,283.24l-4.51,2-1.22.54s-17.76-5-7.79-9.26a9.9,9.9,0,0,1,6.11-.81C562.28,276.91,564.33,283.24,564.33,283.24Z" transform="translate(-57.31 -44.33)"/><path class="cls-6" d="M559.82,285.28l-1.22.54s-17.76-5-7.79-9.26a9.9,9.9,0,0,1,6.11-.81h0S549.14,278.43,559.82,285.28Z" transform="translate(-57.31 -44.33)"/><rect class="cls-7" x="428.22" y="236.39" width="138.34" height="108.66"/><rect class="cls-8" x="423.32" y="236.39" width="148.16" height="32.62"/><rect class="cls-9" x="482.52" y="236.39" width="29.76" height="108.66"/><path class="cls-10" d="M643.05,317s-12-4.37-18.68-9.29a11.6,11.6,0,0,1-4-4.42,3,3,0,0,1,.95-3.61s.8-.33,2.84.52c3,1.25,8.75,5.08,18.58,16.39C642.82,316.7,642.94,316.83,643.05,317Z" transform="translate(-57.31 -44.33)"/><path class="cls-11" d="M643.05,317l-.68,3.36s-24,6-31.66-1.83l-.33-.35a6.23,6.23,0,0,1-1.32-2.36c-2.16-7.44,12.22-16.14,12.22-16.14-.33.42-.25,1,.16,1.69a11.21,11.21,0,0,0,2,2.3C629.07,309,643.05,317,643.05,317Z" transform="translate(-57.31 -44.33)"/><path class="cls-12" d="M623.41,303.64s-4.95,2-6.44,5.24-2.33,5.92-4.4,6.9a5.47,5.47,0,0,0-2.19,2.37,6.23,6.23,0,0,1-1.32-2.36,7.43,7.43,0,0,1,1.71-4c3.07-3.64,6.19-6.27,6.57-7.59.28-1,2.85-2.31,4.1-2.91a11.21,11.21,0,0,0,2,2.3Z" transform="translate(-57.31 -44.33)"/><path class="cls-13" d="M650.38,317s12-4.37,18.68-9.29a11.6,11.6,0,0,0,4-4.42,3,3,0,0,0-.94-3.61s-.81-.33-2.85.52c-3,1.25-8.75,5.08-18.57,16.39Z" transform="translate(-57.31 -44.33)"/><path class="cls-14" d="M650.38,317l.68,3.36s24,6,31.67-1.83c.11-.12.22-.23.32-.35a6.23,6.23,0,0,0,1.32-2.36c2.16-7.44-12.21-16.14-12.21-16.14.33.42.24,1-.17,1.69a11.21,11.21,0,0,1-2,2.3C664.37,309,650.38,317,650.38,317Z" transform="translate(-57.31 -44.33)"/><path class="cls-15" d="M642.14,317s1.12-1.27,1.91-.77,1.91-.95,3.11-.37,1.33-1,2.78-.14,2.33,3.79,1.25,5.24-1.66-.29-2.2,0-1.54,1.59-3.2.59-4.11.9-3.94-.34S641.43,319.37,642.14,317Z" transform="translate(-57.31 -44.33)"/><rect class="cls-16" x="545.38" y="275.88" width="88.06" height="69.17"/><rect class="cls-17" x="542.25" y="275.88" width="94.31" height="24"/><rect class="cls-18" x="579.94" y="275.88" width="18.94" height="69.17"/><path class="cls-19" d="M134,200.06c15.25,10.62,30.2,17.74,38.23,13.4a9.38,9.38,0,0,0,1.34-.88c4.59-3.64,6.21-12.12,3.13-27.49-8.19-40.9-33.89-47.41-57.91-59.73-23.72-12.14-14.68-38-14.44-38.62C71.62,144.8,108.19,182,134,200.06Z" transform="translate(-57.31 -44.33)"/><path class="cls-20" d="M172.27,213.46a9.38,9.38,0,0,0,1.34-.88c-3-8-9.7-23.34-18.82-31.67a152.92,152.92,0,0,0-14.58-11.25c-10-7.11-20.32-14.47-27.3-25.32l-1.3.83c7.15,11.1,17.6,18.54,27.71,25.74A152.5,152.5,0,0,1,153.75,182C162.64,190.17,169.33,205.71,172.27,213.46Z" transform="translate(-57.31 -44.33)"/><path class="cls-21" d="M89.3,241.86c21,3.45,34.6-13.17,58.8,17.42,20.9,26.41,50.45-2.78,58.15-11.26,1.22-1.34,1.88-2.16,1.88-2.16s-.46.12-1.26.3c-5.25,1.13-25.14,4.37-29.83-10.75-5.4-17.46-20.86-41.21-41.28-34.95s-24.84-9.11-39.92-20.69-38.53,9.8-38.53,9.8S68.27,238.41,89.3,241.86Z" transform="translate(-57.31 -44.33)"/><path class="cls-22" d="M155.18,236.08c4,6.94,8.12,14.12,17.5,18.06,12.79,5.35,25.85-.93,33.57-6.12,1.22-1.34,1.88-2.16,1.88-2.16s-.46.12-1.26.3c-7.28,5.17-20.7,12.35-33.73,6.88-9-3.77-13-10.78-16.94-17.55-4.51-7.83-9.16-15.93-21.42-18.73-5.42-1.23-10.22-.84-14.87-.46-6.69.56-13,1.08-19.94-3.72l-.68,1c7.28,5,13.81,4.51,20.71,3.94,4.56-.38,9.27-.77,14.51.43C146.27,220.6,150.6,228.12,155.18,236.08Z" transform="translate(-57.31 -44.33)"/><path class="cls-23" d="M481.17,144.06c2.26,41.56,35.23,39.49,37.84,39.26h.16c-.72-.84-1.39-1.69-2-2.55-16.52-22.88,2.29-54.18,2-77.2-.32-23.88-21.6-29.11-21.6-29.11C513.21,87.62,478.83,100.78,481.17,144.06Z" transform="translate(-57.31 -44.33)"/><path class="cls-24" d="M500.47,165c4.47,8,11.54,14,18.54,18.33h.16c-.72-.84-1.39-1.69-2-2.55-6-4.06-11.84-9.47-15.69-16.34-5-8.83-5.78-18.59-2.5-29,10.44-33,4.52-38.3,4.26-38.51l-.36.45-.38.44v0c.31.33,5.17,6.2-4.64,37.25C494.48,145.8,495.36,155.87,500.47,165Z" transform="translate(-57.31 -44.33)"/><path class="cls-25" d="M547.61,185.59c-13.11,16.15-27,28.45-37,26.27a10,10,0,0,1-1.71-.53c-6.06-2.48-10.43-11.1-11.9-28.59-3.88-46.53,21.74-61.51,43.76-82.21,21.75-20.43,14.37-45.4,13.91-46C608,106.78,569.82,158.19,547.61,185.59Z" transform="translate(-57.31 -44.33)"/><path class="cls-26" d="M510.64,211.86a10,10,0,0,1-1.71-.53c.79-9.49,3.2-28.11,10.41-39.9a173.56,173.56,0,0,1,12.19-16.62c8.54-10.75,17.37-21.87,21.51-35.71l1.66.49c-4.24,14.16-13.18,25.41-21.82,36.29a168.15,168.15,0,0,0-12.06,16.45C513.78,183.83,511.4,202.61,510.64,211.86Z" transform="translate(-57.31 -44.33)"/><path class="cls-27" d="M106.78,95.7H451.2a19.52,19.52,0,0,1,19.52,19.52v199a19.52,19.52,0,0,1-19.52,19.52H106.78a19.51,19.51,0,0,1-19.51-19.51v-199A19.51,19.51,0,0,1,106.78,95.7Z"/><path class="cls-28" d="M462.46,222.05A31.58,31.58,0,1,1,494,190.48,31.61,31.61,0,0,1,462.46,222.05Zm0-58.5a26.93,26.93,0,1,0,26.93,26.93A27,27,0,0,0,462.46,163.55Z" transform="translate(-57.31 -44.33)"/><path class="cls-29" d="M187.5,323.62a12.72,12.72,0,0,1-4.82-.89,12.25,12.25,0,0,1-3.86-2.41,11.47,11.47,0,0,1-2.6-3.56,10.46,10.46,0,0,1,0-8.8,11.07,11.07,0,0,1,2.6-3.57,12.72,12.72,0,0,1,3.86-2.37,13.42,13.42,0,0,1,9.61,0,12.69,12.69,0,0,1,3.9,2.37,11.22,11.22,0,0,1,2.6,3.57,10.56,10.56,0,0,1,0,8.8,11.64,11.64,0,0,1-2.6,3.56,12.22,12.22,0,0,1-3.9,2.41A12.82,12.82,0,0,1,187.5,323.62Zm-8.09,27.47,20.94-24.42,19.3-25.39,4.53,4-20.27,24-20,25.84Zm8.09-32.44a4.13,4.13,0,0,0,2-.52,6.25,6.25,0,0,0,2.83-3.38,7.21,7.21,0,0,0,.4-2.41,6.51,6.51,0,0,0-1.56-4.42,4.73,4.73,0,0,0-3.71-1.82,4.18,4.18,0,0,0-2,.52,6.4,6.4,0,0,0-1.67,1.38,6.18,6.18,0,0,0-1.15,2,7,7,0,0,0-.41,2.38,6.68,6.68,0,0,0,1.56,4.45A4.71,4.71,0,0,0,187.5,318.65Zm28.66,36.67a13,13,0,0,1-4.83-.89,12.67,12.67,0,0,1-3.86-2.38,11.12,11.12,0,0,1-2.6-3.52,10.63,10.63,0,0,1,0-8.83,11.68,11.68,0,0,1,2.6-3.57,12.37,12.37,0,0,1,3.86-2.41,13.52,13.52,0,0,1,9.65,0,12.68,12.68,0,0,1,3.9,2.41,10.77,10.77,0,0,1,2.6,3.57,10.94,10.94,0,0,1,0,8.83,10.28,10.28,0,0,1-2.6,3.52,13,13,0,0,1-8.72,3.27Zm0-5a4.07,4.07,0,0,0,2-.52,6.4,6.4,0,0,0,1.67-1.37,6.15,6.15,0,0,0,1.15-2,6.92,6.92,0,0,0,.41-2.38,6.71,6.71,0,0,0-.45-2.48,7,7,0,0,0-1.15-2,5,5,0,0,0-1.67-1.33,4.31,4.31,0,0,0-2-.49,4.15,4.15,0,0,0-2,.52,6.24,6.24,0,0,0-1.67,1.38,5.89,5.89,0,0,0-1.15,2,7,7,0,0,0-.41,2.41,6.54,6.54,0,0,0,1.56,4.42A4.74,4.74,0,0,0,216.16,350.35Z" transform="translate(-57.31 -44.33)"/><rect class="cls-30" x="109.7" y="126.55" width="203.4" height="14.55"/><rect class="cls-31" x="109.7" y="114.58" width="203.4" height="3.77"/><rect class="cls-32" x="109.7" y="149.15" width="104.03" height="14.55"/><rect class="cls-33" x="199.4" y="156.43" width="159.17" height="198.9" rx="14.89"/><path class="cls-34" d="M376.58,365.3a17.54,17.54,0,1,1,17.54-17.54A17.56,17.56,0,0,1,376.58,365.3Zm0-31.69a14.15,14.15,0,1,0,14.14,14.15A14.17,14.17,0,0,0,376.58,333.61Z" transform="translate(-57.31 -44.33)"/><polygon class="cls-34" points="318.15 310.33 310.19 302.37 312.59 299.96 318.15 305.53 325.96 297.73 328.36 300.13 318.15 310.33"/><rect class="cls-28" x="367.99" y="295.71" width="5.09" height="23.46"/><rect class="cls-28" x="375.51" y="295.71" width="2.55" height="23.46"/><rect class="cls-28" x="380.49" y="295.71" width="4.65" height="23.46"/><rect class="cls-28" x="387.65" y="295.71" width="2.79" height="23.46"/><rect class="cls-28" x="392.39" y="295.8" width="1.3" height="23.46"/><rect class="cls-28" x="395.58" y="295.71" width="4.45" height="23.46"/><rect class="cls-28" x="401.83" y="295.71" width="3.37" height="23.46"/><rect class="cls-28" x="406.81" y="295.71" width="1.68" height="23.46"/><rect class="cls-28" x="410.41" y="295.71" width="4.78" height="23.46"/><rect class="cls-28" x="416.39" y="295.71" width="3.57" height="23.46"/><rect class="cls-28" x="421.5" y="295.71" width="1.78" height="23.46"/><rect class="cls-28" x="424.71" y="295.71" width="2.46" height="23.46"/><rect class="cls-28" x="428.91" y="295.82" width="7.81" height="23.46"/><path class="cls-35" d="M176,79.57V122.7s8.6,12.15,18.86,0h18.87s8.59,12.15,18.86,0h18.87s8.59,12.15,18.86,0h18.86s8.6,12.15,18.87,0h18.86s8.6,12.15,18.87,0h18.86s8.6,12.15,18.86,0h18.87s8.6,12.15,18.86,0h18.87s8.59,12.15,18.86,0h18.87s8.59,12.15,18.86,0V79.57Z" transform="translate(-57.31 -44.33)"/><path class="cls-36" d="M194.81,122.7s8.6,12.15,18.87,0V79.57H194.81Z" transform="translate(-57.31 -44.33)"/><path class="cls-36" d="M232.54,122.7s8.6,12.15,18.87,0V79.57H232.54Z" transform="translate(-57.31 -44.33)"/><path class="cls-36" d="M270.27,122.7s8.6,12.15,18.86,0V79.57H270.27Z" transform="translate(-57.31 -44.33)"/><path class="cls-36" d="M308,122.7s8.6,12.15,18.86,0V79.57H308Z" transform="translate(-57.31 -44.33)"/><path class="cls-36" d="M345.73,122.7s8.59,12.15,18.86,0V79.57H345.73Z" transform="translate(-57.31 -44.33)"/><path class="cls-36" d="M383.45,122.7s8.6,12.15,18.87,0V79.57H383.45Z" transform="translate(-57.31 -44.33)"/><path class="cls-36" d="M421.18,122.7s8.6,12.15,18.87,0V79.57H421.18Z" transform="translate(-57.31 -44.33)"/><path class="cls-36" d="M458.91,79.57V122.7s8.6,12.15,18.87,0V79.57Z" transform="translate(-57.31 -44.33)"/><path class="cls-34" d="M366,230.34,363.33,242H295.22v2.66l9.8,45.5v1.33h5.55l1.41,5.89h2a5,5,0,1,0,3.43,0h28a5,5,0,1,0,3.43,0h2.21v-2.1H313.64l-.91-3.79H355V290.2L363,253l4.66-20.52h28.56v-2.1Zm-47.38,71.75a2.88,2.88,0,1,1-2.88-2.88A2.89,2.89,0,0,1,318.61,302.09Zm31.42,0a2.88,2.88,0,1,1-2.88-2.88A2.88,2.88,0,0,1,350,302.09ZM321.1,260.31h17.81L338,273.26H322Zm-1.41,12.95H303.76L301,260.31h17.79Zm19.41-15.61H320.91L320,244.7h20Zm3.27-12.95h20l-2.79,12.95H341.44Zm-4.58,31.22-.93,12.95H323.15l-.93-12.95Zm2.34,0h15.55l-2.79,12.95H339.2Zm16.12-2.66H340.32l.93-12.95H359L356.3,273ZM317.64,244.7l.93,12.95H300.4l-2.79-12.95Zm-13.31,31.22h15.55l.93,12.95H307.12Z" transform="translate(-57.31 -44.33)"/><rect class="cls-34" x="271.01" y="332.69" width="15.96" height="2.03"/><rect class="cls-34" x="271.01" y="167.79" width="15.96" height="2.03"/><rect class="cls-34" x="222.95" y="294.47" width="39.45" height="5.27"/><rect class="cls-34" x="222.95" y="307.12" width="58.4" height="5.27"/><rect class="cls-29" x="375.51" y="208.96" width="61.21" height="20.12"/><rect class="cls-29" x="375.51" y="234.63" width="61.21" height="11.96"/><path class="cls-37" d="M460.57,343.82a6.86,6.86,0,0,0-.91,2.39,11.41,11.41,0,0,1-1.1,2.82,27,27,0,0,0-1.34,4.7,20.4,20.4,0,0,1,.63,3.14c-.1.68-.49,2,.12,2.12s1.3-1,1.3-1a.89.89,0,0,0,.46.86,1.51,1.51,0,0,0,1.54.06s.37.69.84.78a3.09,3.09,0,0,1,2.69.17,1.53,1.53,0,0,0,1.29-.81s1.14.24,1.48-.3a5.34,5.34,0,0,0,.41-1.59,18.52,18.52,0,0,0-1.45-8,7.09,7.09,0,0,1,.38-6.24Z" transform="translate(-57.31 -44.33)"/><path class="cls-38" d="M459.11,357.56s-.1-3.93.93-4.77,1.16.58,1.16.58-.14-1.4,1-1.59,1.18,1.48,1.18,1.48a1.08,1.08,0,0,1,1.37-.86c1.19.22.91,1.6.91,1.6s1.14-1.35,1.87-.05a5.78,5.78,0,0,1,.05,4.79s-.35.59-1.48.3a1.57,1.57,0,0,1-2.46.43s-1.73,1-2.36-.57A1.44,1.44,0,0,1,459.11,357.56Z" transform="translate(-57.31 -44.33)"/><path class="cls-39" d="M447.21,287.11s6.74,22.46,9,30.75c.71,2.6,2.44,27.41,2.74,28.41s8.86,2.37,8.86,2.37-1-31.05-1.13-32.74-9.44-36.36-12.15-37.6c-2-.92-3.11-.16-5.67,1.75C445.28,282.72,447.21,287.11,447.21,287.11Z" transform="translate(-57.31 -44.33)"/><path class="cls-40" d="M452.68,440.47s.61,4.27.69,4.91,6.83-.38,6.83-.38l.55-5.08S453.52,439.87,452.68,440.47Z" transform="translate(-57.31 -44.33)"/><path class="cls-41" d="M453.3,444.83a18.23,18.23,0,0,1-4.21,3.69c-2.07,1.12-5.33,1.57-6.55,2.73-.88.83-3.22,4.44,5.38,4.36s12.75.51,13.67-.87-1.34-10.2-1.34-10.2S458.22,445.28,453.3,444.83Z" transform="translate(-57.31 -44.33)"/><path class="cls-40" d="M404.26,440.47s.62,4.27.7,4.91,6.83-.38,6.83-.38l.55-5.08S405.11,439.87,404.26,440.47Z" transform="translate(-57.31 -44.33)"/><path class="cls-41" d="M404.88,444.83a18.23,18.23,0,0,1-4.21,3.69c-2.07,1.12-9.69,2-10.91,3.2-.89.84-2.36,4.21,9.74,3.89,8.6-.22,12.75.51,13.67-.87s-1.33-10.2-1.33-10.2S409.92,445.33,404.88,444.83Z" transform="translate(-57.31 -44.33)"/><path class="cls-41" d="M447.08,330.91s6.35,10.08,5.88,19.2,2.3,19.08,3.25,28.6c1.07,10.62,5.42,35.76,5.58,41.44s-.68,23.82-.68,23.82l-8.71.2s-7.31-43.95-9.21-48.44-11.29-36.45-11.6-40S447.08,330.91,447.08,330.91Z" transform="translate(-57.31 -44.33)"/><path class="cls-41" d="M413.66,332.27s-4.78,25-5.41,30.57-1.06,27-1.37,30.5-2.95,45.54-3.79,50.83h11.13s8.55-30.65,8.55-45.15,6.61-31.52,10.87-41.09,14-9.79,16.64-27.54C450.28,330.39,417.21,326.64,413.66,332.27Z" transform="translate(-57.31 -44.33)"/><path class="cls-37" d="M436.49,246.1S428,242.91,424,249.4s-3.55,19.48.74,21.07,10.75.76,13-3.3,4.19-9.92,4.09-13.84S438.73,247.23,436.49,246.1Z" transform="translate(-57.31 -44.33)"/><path class="cls-37" d="M425.71,270.77a7.43,7.43,0,0,1-.23,3.43c-.59,1.14,11,1.17,11,1.17A76.31,76.31,0,0,1,439.25,264C441,258.78,425.71,270.77,425.71,270.77Z" transform="translate(-57.31 -44.33)"/><path class="cls-39" d="M439.25,264s-.8,1.33-4.08.81-7.27-4.87-8.64-5.35-1.38-1.28-1.38-1.28l-.86,1.25-1.45.09s1.33-3.9-.67-5.48,2.08-12.62,12.58-8.95c0,0,8.07,2.22,7.78,6.81S441.06,261.71,439.25,264Z" transform="translate(-57.31 -44.33)"/><path class="cls-42" d="M424.79,274.07s0-2.17,1-2.38,10.84-1.15,12.05-.68v2.52S435.52,275,424.79,274.07Z" transform="translate(-57.31 -44.33)"/><path class="cls-37" d="M425.37,256.5c.18-.77,2.14-3,2.89-.61s-1.13,5.52-2.18,5.25S424.9,258.45,425.37,256.5Z" transform="translate(-57.31 -44.33)"/><path class="cls-39" d="M385.68,299.65h0C385.63,299.68,385.62,299.68,385.68,299.65Z" transform="translate(-57.31 -44.33)"/><path class="cls-39" d="M438.92,246.86s10.86.85.33,17.13Z" transform="translate(-57.31 -44.33)"/><path class="cls-43" d="M364.87,250.17a2.35,2.35,0,0,1,1.51-1.41,3.83,3.83,0,0,1,1.75-1.12,1,1,0,0,1,.07-.15c-.77-.83-3-2.37-3.14-2.67s-.12-.39.32-.63,4,2.18,5.23,3a7,7,0,0,1,.59.4,10.32,10.32,0,0,1,1.6,1.1l.18.21c.61.78,2,7,2,7L372.47,257,370,259.08s-2.87-2.37-3.6-3.11a7.31,7.31,0,0,1-1.27-2,3,3,0,0,0-.25-.36c-.33-.45-.83-1-.83-1a4.06,4.06,0,0,1-.4-1.22C363.72,250.62,364.87,250.17,364.87,250.17Z" transform="translate(-57.31 -44.33)"/><path class="cls-39" d="M408.49,277.35c6.76-.89,16.3-3.28,16.3-3.28l13.06-.54s12,2.64,16.7,4.77c.45.21.45,10.7,1.68,13.45L452.32,300s-2.27,16.36-2.73,23.63c-.22,3.34,4.66,31.31,4.66,31.31a90,90,0,0,1-14.14,2.52c-8.91,1-31.18-.36-31.32-1.41s4.31-39.2,4.51-41.17c.3-3-1.05-19.14-1.05-19.14-2.05-1.6-20.12-10-25.05-14.36-1.32-1.17-6.89-6.59-8.47-8.46-5.6-6.63-10.2-12.31-10.76-13.54-.63-.69,6.09-4.35,6.7-4.55s8.11,9.64,11,12.8a83.07,83.07,0,0,0,6.7,5.33S404.26,277.59,408.49,277.35Z" transform="translate(-57.31 -44.33)"/><path class="cls-37" d="M197,272.15s1.57-2.94,1.82-3.38a8.1,8.1,0,0,1,3.06-1.65,9.45,9.45,0,0,1,4.09-.55,1.46,1.46,0,0,1,.78.91,2.37,2.37,0,0,1,0,1.4,1.78,1.78,0,0,1,.36,1.59,1.33,1.33,0,0,1,.23,1.57s.66.69.26,1.34a10.79,10.79,0,0,0-1.68,1,23.75,23.75,0,0,1-6,2.16S197.12,276.29,197,272.15Z" transform="translate(-57.31 -44.33)"/><path class="cls-44" d="M201.58,271a8.22,8.22,0,0,1-.43,2.12c-.28.44,3.21,1.88,3.21,1.88S203.6,271.19,201.58,271Z" transform="translate(-57.31 -44.33)"/><polygon class="cls-45" points="184.15 269.5 142.47 274.92 135.41 236.75 178.98 229.3 184.15 269.5"/><path class="cls-46" d="M220.36,277.37c-.14-4-1.57-8.8-4.68-11.35a9.65,9.65,0,0,0-8-1.83c-6.77,1.09-7.23,8.16-5.85,13.14Zm-17.81-.94c-1.16-5.3-.12-10.48,5.29-11.35a8.78,8.78,0,0,1,7.27,1.63c2.71,2.22,4,6.33,4.3,9.76Z" transform="translate(-57.31 -44.33)"/><path class="cls-46" d="M222,277.37c-.14-4-1.93-8.8-5-11.35a9.66,9.66,0,0,0-8-1.83c-6.77,1.09-6,8.16-4.61,13.14Zm-16.95-.94c-1.15-5.3-1.35-10.48,4.07-11.35a8.79,8.79,0,0,1,7.27,1.63,15.31,15.31,0,0,1,4.91,9.76Z" transform="translate(-57.31 -44.33)"/><polygon class="cls-47" points="177.72 275.61 129.07 271.86 132.98 232.46 178.18 231.13 177.72 275.61"/><path class="cls-37" d="M99.16,298.13s.4-3.31.44-3.82a8,8,0,0,0-1.55-3.11,9.35,9.35,0,0,0-3-2.79,1.41,1.41,0,0,0-1.16.29,2.47,2.47,0,0,0-.84,1.11,1.77,1.77,0,0,0-1.26,1.06,1.42,1.42,0,0,0-1,1.21s-.92.2-1,.95a11.09,11.09,0,0,1,.8,1.79A23.26,23.26,0,0,0,94.2,300S96.69,301.45,99.16,298.13Z" transform="translate(-57.31 -44.33)"/><path class="cls-46" d="M104.53,302.69c.39-3.05,0-7-2-9.38A6.76,6.76,0,0,0,97.26,291,9.23,9.23,0,0,0,90,293.82c-2.6,2.83-3.31,7.57-2.92,11.36ZM87.81,304.2c-.16-3.3.51-7.33,2.77-9.8a8.43,8.43,0,0,1,6.67-2.5,5.94,5.94,0,0,1,4.58,2c1.73,2,2.15,5.45,1.92,8.07Z" transform="translate(-57.31 -44.33)"/><polygon class="cls-48" points="11.06 303.31 14.26 262.25 21.38 302.74 16.45 301.88 11.06 303.31"/><polygon class="cls-49" points="21.38 302.74 63.69 295.3 56.77 255.89 14.14 261.95 21.38 302.74"/><path class="cls-46" d="M124,311.52c.69,2,0,4.55-.84,6.46l.76,0c.9-2,1.48-4.61.75-6.74Z" transform="translate(-57.31 -44.33)"/><polygon class="cls-45" points="35.48 304.31 70.15 308.83 76.05 277.04 39.8 270.84 35.48 304.31"/><polygon class="cls-50" points="28.41 303.31 39.77 270.87 35.48 304.11 31.79 302.74 28.41 303.31"/><path class="cls-46" d="M124.74,310.61c1.23,2.44.63,5.75.41,6.72l.71.26c.24-1,1-5-.76-7.86Z" transform="translate(-57.31 -44.33)"/><polygon class="cls-51" points="31.79 308.17 39.51 273.12 40.82 309.2 36.62 307.59 31.79 308.17"/><path class="cls-37" d="M94.2,300s2.59,2.31,3.93,2.35,2-3.63,2-3.63L99,296.48Z" transform="translate(-57.31 -44.33)"/><path class="cls-37" d="M195.24,274.24a11.63,11.63,0,0,0,1.87-2.29c.57-1.06,3.16,4.54,3.16,4.54s-3.22.13-4.64,1.13S195.24,274.24,195.24,274.24Z" transform="translate(-57.31 -44.33)"/><path class="cls-38" d="M205.57,266.71s-3.83,1.6-3.65,2.25a1,1,0,0,0,.63.77l-1.28,1.37s-.33,1.39,1.28,1.35c0,0-.45,1.26,1.1,1,0,0,.07,1,.81,1a13.94,13.94,0,0,0,3.16-1.1s.4-.47-.2-1.34a1.42,1.42,0,0,0-.15-1.61,1.58,1.58,0,0,0-.43-1.56s.53-1.73-.86-2.3Z" transform="translate(-57.31 -44.33)"/><path class="cls-37" d="M199,268.71a14.27,14.27,0,0,1,4.34,1c.33.19.63.43.59.81s-.65.81-1.89.77a10.36,10.36,0,0,0-2.85.48S197.88,271.39,199,268.71Z" transform="translate(-57.31 -44.33)"/><path class="cls-44" d="M96.1,294.52a7.92,7.92,0,0,0-.86,2c0,.53-3.71-.3-3.71-.3S94.31,293.55,96.1,294.52Z" transform="translate(-57.31 -44.33)"/><path class="cls-38" d="M95.27,288.76s2.23,3.5,1.7,3.93a1,1,0,0,1-1,.27l.26,1.86s-.52,1.33-1.81.37c0,0-.36,1.29-1.5.22,0,0-.62.74-1.23.34a13.51,13.51,0,0,1-2-2.72s-.07-.61.92-1a1.45,1.45,0,0,1,1.06-1.24,1.58,1.58,0,0,1,1.24-1s.57-1.72,2-1.38A4,4,0,0,1,95.27,288.76Z" transform="translate(-57.31 -44.33)"/><path class="cls-37" d="M99.54,294.2a14,14,0,0,0-4.14-1.65c-.38-.05-.76,0-.94.32s.06,1,1.09,1.71a10.27,10.27,0,0,1,2.06,2S98.87,297,99.54,294.2Z" transform="translate(-57.31 -44.33)"/><path class="cls-48" d="M145.09,447.47c-2,.6-2.58,4-4.27,5s-9.93,1.69-10.22-.9,3.45-4.89,5.14-6.18,5.48-5.53,6.25-7.22c0,0,.68,1.08,2.7.75S147,438,147,438a11.68,11.68,0,0,0,.83,4.19A4.15,4.15,0,0,1,145.09,447.47Z" transform="translate(-57.31 -44.33)"/><path class="cls-48" d="M158.55,447.94c-1.53,1.39-1.82,3.62-3.51,4.61a8.74,8.74,0,0,1-2.58.78c-2.06.37-4.68.45-6-.3a1.43,1.43,0,0,1-.77-1.07c-.29-2.58,3.53-5.47,5.22-6.76a13.92,13.92,0,0,0,3-4.34c.53-1.06,1-2.06,1.28-2.71h0a1.16,1.16,0,0,0,.35.36,2.84,2.84,0,0,0,2.16.32,4.94,4.94,0,0,0,2.42-.86l0,0,0,0h0c.33,1.62.85,3.26,1.05,4C162,444.63,160,446.62,158.55,447.94Z" transform="translate(-57.31 -44.33)"/><path class="cls-52" d="M144,244.2s6.45-.67,8.77,5.55,4.51,8.26,4.78,11.54c1.11,13.22,7.29,10.23,5.55,17.86s-2.94,8.77-2.94,8.77L145.37,285l-15,.05s5.86-2.93,4.55-9.15-4.55-16.43-2.71-23.38S140.13,244.73,144,244.2Z" transform="translate(-57.31 -44.33)"/><polygon class="cls-53" points="40.82 309.2 78.24 307.89 78.93 272.95 39.54 272.95 40.82 309.2"/><polygon class="cls-50" points="193.96 266.7 178.98 229.3 184.15 269.5 188.51 266.94 193.96 266.7"/><polygon class="cls-54" points="188.57 274.38 178.18 231.13 177.72 275.61 182.77 273.67 188.57 274.38"/><path class="cls-37" d="M133.34,333S127.9,351.9,127,356.73s-3.6,28.23-3.89,32.21,8.87,22.64,9.37,24c1.93,5.21,9.83,24.1,9.83,24.1s5.1,3,4.53-1.41c-1.73-13.49-2.55-16.82-3.76-23.82-2.66-15.33-8.16-17.34-7.32-19.58,8.51-22.61,10.22-38,11.36-39.27s1.29.67,1.95,3.61-.26,23.15.93,31c.65,4.25,2.11,13.77,2.59,19.27s2.95,30.92,2.95,30.92.33,1,4.12-1.15c.63-.35,3.63-22.48,3.73-29s-2.8-7.47-.48-20.13c5-27.13,4.28-31.8-1.51-51.3C147.18,288.42,133.34,333,133.34,333Z" transform="translate(-57.31 -44.33)"/><path class="cls-55" d="M199.61,277.53c-.23-.24-14,10.32-15.52,11.19-3,1.71-6.17,1.62-9.52,1.83-3.75.23-8-.17-11.69.57-1.9.38-2.13.88-3.12,2.91-2.71,5.52-3.58,12.39-3.94,18.46-.38,6.33,2.05,10.73,4.6,16.32.87,1.89,2.09,3.85.41,5.58-1.51,1.57-4.48,1.88-6.47,2.14-4.88.64-12.36,1-17.06-.91-5.75-2.37-4.72-9.61-5.33-14.66-.41-3.38-2.05-8.45-3-11.73a19.92,19.92,0,0,1-.85-8c-1.79,5.09-3.3,13.8-8.13,17-3.74,2.5-7.07-.86-9.76-3.19L95,301.73l3.25-3c.36-.33.38-.42.78-.74,1-.76.85-1,1.83-.37.66.45,2.42,2.08,3,2.6,1.85,1.72,3.47,2.76,5.31,4.48,1.61,1.49,4.36,4.95,6.82,3.75,1.89-.94,2.41-4.79,3.06-6.51,1.81-4.78,3.63-9.58,5.79-14.22,2.3-5,7.41-7.59,12.36-9.57,4.29-1.71,10-1.36,14.38-.26,3,.78,4.14.83,7.18,1.67s5.61,1.84,8.56,2.45a55.26,55.26,0,0,0,10.43,1c2.75,0,3.89-.43,6.2-2,3.12-2.16,7.67-5.89,11.09-7.62C197.18,272.23,197.93,275.81,199.61,277.53Z" transform="translate(-57.31 -44.33)"/><path class="cls-37" d="M148.43,270.06s-.51,6.44.73,8.37-1.06,4.54-5.8,3.65-4.46-3.59-4.46-3.59a19.66,19.66,0,0,0,.93-7.15C139.45,268.17,148.43,270.06,148.43,270.06Z" transform="translate(-57.31 -44.33)"/><path class="cls-37" d="M151.52,277.88s-4.28,10-9.81,12.07c0,0-5.46-4.85-4-12C137.72,277.92,144.76,274.32,151.52,277.88Z" transform="translate(-57.31 -44.33)"/><path class="cls-37" d="M144.83,247.84s8.54,1.23,7.29,13.84-8.79,11.6-9.29,11.59-7.56.26-8.17-15.12C134.66,258.15,134.38,246.78,144.83,247.84Z" transform="translate(-57.31 -44.33)"/><path class="cls-52" d="M143.86,252.41s4,4.19,5.84,6.32,2.06,6.22,2.06,6.22,3.12-3.81,1.82-8.25-4.39-13.08-12.21-10.42-8.11,14.33-7.19,20.12C134.18,266.4,137.69,253.62,143.86,252.41Z" transform="translate(-57.31 -44.33)"/><path class="cls-56" d="M140.57,272.74a7.15,7.15,0,0,0,7.35-1.06,5.4,5.4,0,0,1-3.89,2.49A3.77,3.77,0,0,1,140.57,272.74Z" transform="translate(-57.31 -44.33)"/><path class="cls-46" d="M117.12,307.26a2.84,2.84,0,0,1-1.19,1.18c-3.91,2.1-4.59,7.07-4.72,8.83h-.83C111.06,308.1,117.12,307.26,117.12,307.26Z" transform="translate(-57.31 -44.33)"/><path class="cls-46" d="M116.89,307.31s-6.3.3-8.08,9.86l.65.1s1.23-7,6.26-8.93A2.92,2.92,0,0,0,116.89,307.31Z" transform="translate(-57.31 -44.33)"/><path class="cls-55" d="M161.5,331.34s8.62,17.86,2.82,54.09c0,0-17.58-1.65-43.95-3.54,0,0,12-48.72,12.33-51.82S161.5,331.34,161.5,331.34Z" transform="translate(-57.31 -44.33)"/><path class="cls-37" d="M142.12,436.67a3.82,3.82,0,0,0,4.74-.55L147,438s-3.89,3.5-4.92-.26Z" transform="translate(-57.31 -44.33)"/><path class="cls-37" d="M156.22,436.35s1.47,1.33,3.69-.66l.29,2.22s-3.79,3.87-4.82.11Z" transform="translate(-57.31 -44.33)"/><path class="cls-48" d="M142.12,437.76s-2,2.42-1.83,2.82,4.62,1.29,5.29.34A18.64,18.64,0,0,0,147,438S143.18,439.74,142.12,437.76Z" transform="translate(-57.31 -44.33)"/><path class="cls-48" d="M155.5,437.71s-1.89,2.66-1.69,3.06,4.12,1,4.79.09a25,25,0,0,0,1.6-2.95S156.56,439.69,155.5,437.71Z" transform="translate(-57.31 -44.33)"/><path class="cls-57" d="M132.44,327.49s10.36,3.84,25.32-4.61c0,0,.59,1.22,1.26,2.89,0,0-13.63,8.42-26.32,4.3A9.3,9.3,0,0,1,132.44,327.49Z" transform="translate(-57.31 -44.33)"/><path class="cls-50" d="M129.46,292.5c-1.2,3.09-1.33,8.69-1.33,8.69s-.38,1.46-1,3.21C127,296.08,129.46,292.5,129.46,292.5Z" transform="translate(-57.31 -44.33)"/><path class="cls-58" d="M143.14,278.63a7.67,7.67,0,0,1-1.45-.14,4.47,4.47,0,0,1-2.48-1.18l.22-.8a5.59,5.59,0,0,0,2.47,1.14,9.37,9.37,0,0,0,6.59-1.6l.33.77A10.7,10.7,0,0,1,143.14,278.63Z" transform="translate(-57.31 -44.33)"/><path class="cls-59" d="M169.63,144.07l-19.95,3.74a5.12,5.12,0,0,0-2.93,1.69l-45.28,52.36a5.12,5.12,0,0,0,.53,7.22l19.13,16.54a5.12,5.12,0,0,0,7.22-.52l45.27-52.37a5.11,5.11,0,0,0,1.25-3.14l.81-20.28A5.11,5.11,0,0,0,169.63,144.07Zm2.88,7a2.74,2.74,0,1,1-.28-3.86A2.73,2.73,0,0,1,172.51,151Z" transform="translate(-57.31 -44.33)"/><path class="cls-60" d="M130.71,205.84a8.83,8.83,0,0,1-2.31,1.92,7,7,0,0,1-2.65.94l-.7-2.93a1.73,1.73,0,0,0,.68-.05,6.55,6.55,0,0,0,1.07-.32,6.06,6.06,0,0,0,1.22-.65,5.59,5.59,0,0,0,1.16-1A3,3,0,0,0,130,202a1.57,1.57,0,0,0-.58-1.29,1,1,0,0,0-.66-.27,2.37,2.37,0,0,0-.82.16,6.26,6.26,0,0,0-.95.46c-.35.2-.72.42-1.11.68a6.22,6.22,0,0,1-2.43,1,2.47,2.47,0,0,1-2-.67,5,5,0,0,1-1.38-1.87,5.27,5.27,0,0,1-.39-2.14,5.89,5.89,0,0,1,.49-2.18,7.62,7.62,0,0,1,1.25-2,6.62,6.62,0,0,1,2.06-1.64,7.45,7.45,0,0,1,2.12-.71l.6,2.82a1.65,1.65,0,0,0-.55,0,4.71,4.71,0,0,0-.87.27,5.49,5.49,0,0,0-1,.52,4,4,0,0,0-.9.79,2.75,2.75,0,0,0-.81,1.75,1.81,1.81,0,0,0,.67,1.39,1.06,1.06,0,0,0,.57.26,1.45,1.45,0,0,0,.69-.1,4.69,4.69,0,0,0,.82-.4l1-.64a11,11,0,0,1,1.36-.79,4.46,4.46,0,0,1,1.27-.41,2.71,2.71,0,0,1,1.2.07,3.13,3.13,0,0,1,1.16.66,4.72,4.72,0,0,1,1.74,4.06,5.61,5.61,0,0,1-.61,2.09A9.05,9.05,0,0,1,130.71,205.84Z" transform="translate(-57.31 -44.33)"/><path class="cls-60" d="M138.12,197.33a3.62,3.62,0,0,1-1.31,1,3.46,3.46,0,0,1-1.49.3,4.19,4.19,0,0,1-1.55-.35,6,6,0,0,1-1.48-.94,6.77,6.77,0,0,1-1.61-2,7.08,7.08,0,0,1-.78-2.38,6.34,6.34,0,0,1,.11-2.38,4.85,4.85,0,0,1,1-2.06,3.09,3.09,0,0,1,1.67-1,3,3,0,0,1,1.83.17l-1.13-1.51,1.8-2.08,4.66,6.14a1.59,1.59,0,0,0,.24.29c.22.19.44.16.67-.08l1.45,1.91-.35.55a2.84,2.84,0,0,1-.28.39,1.88,1.88,0,0,1-1,.66,1.07,1.07,0,0,1-1-.28,3.38,3.38,0,0,1-.51-.61,5.43,5.43,0,0,1,0,2.41A4.66,4.66,0,0,1,138.12,197.33Zm-1-2.46a2.38,2.38,0,0,0,.39-.65,2.89,2.89,0,0,0,.21-.83,4.47,4.47,0,0,0,0-.9,4.26,4.26,0,0,0-.18-.89l-1.6-2.08a2.53,2.53,0,0,0-1.6-.44,1.9,1.9,0,0,0-1.35.65,2.7,2.7,0,0,0-.57,1.19,3.47,3.47,0,0,0,0,1.4,4.51,4.51,0,0,0,.48,1.39,4,4,0,0,0,.91,1.16,2.77,2.77,0,0,0,1.72.73A1.92,1.92,0,0,0,137.16,194.87Z" transform="translate(-57.31 -44.33)"/><path class="cls-60" d="M145.39,188.87a2.42,2.42,0,0,1-1.41.89,1.73,1.73,0,0,1-1.41-.49l-.27-.25-.27-.32-7.7-10.18,1.78-2.07,7.13,9.39a1.83,1.83,0,0,0,.13.16l.15.14a.75.75,0,0,0,1.19-.09,2.2,2.2,0,0,0,.28-.45,2.92,2.92,0,0,0,.21-.56l1.53,1.43a6,6,0,0,1-.57,1.29A6.9,6.9,0,0,1,145.39,188.87Z" transform="translate(-57.31 -44.33)"/><path class="cls-60" d="M151,182.48a4.62,4.62,0,0,1-1.45,1.17,4,4,0,0,1-3.28.15,5.32,5.32,0,0,1-1.57-1,6.24,6.24,0,0,1-1.57-2.05,6.52,6.52,0,0,1-.65-2.46,6.89,6.89,0,0,1,.32-2.57,6.68,6.68,0,0,1,1.35-2.38,4.55,4.55,0,0,1,2.4-1.59,2.58,2.58,0,0,1,2.36.67q2.63,2.26-1.43,6.95l-.5.57a7.87,7.87,0,0,1-.57.6l.21.17a2.82,2.82,0,0,0,1.65.78,1.79,1.79,0,0,0,1.53-.73,3.23,3.23,0,0,0,.72-1.43,3.06,3.06,0,0,0-.06-1.59l1.93-1.2a6.18,6.18,0,0,1,.21,1.51,7,7,0,0,1-.18,1.57,7.1,7.1,0,0,1-.54,1.5A6.2,6.2,0,0,1,151,182.48ZM145.34,175a2.89,2.89,0,0,0-.56,1,3.32,3.32,0,0,0-.15,1.08,3.91,3.91,0,0,0,.19,1.1,4.5,4.5,0,0,0,.47,1c.15-.15.29-.31.43-.46l.41-.49a11.36,11.36,0,0,0,1-1.33,3.8,3.8,0,0,0,.49-1,1.46,1.46,0,0,0,0-.77,1.13,1.13,0,0,0-.37-.56,1,1,0,0,0-1-.24A2,2,0,0,0,145.34,175Z" transform="translate(-57.31 -44.33)"/><path class="cls-61" d="M172.31,147.5l-.16-.64a16.68,16.68,0,0,0,3.56-1.55l.33.57A16.49,16.49,0,0,1,172.31,147.5Z" transform="translate(-57.31 -44.33)"/><path class="cls-61" d="M416.56,200.57l-.63-.21c.91-2.68,1.7-5.15,2.43-7.56l.64.19C418.27,195.41,417.47,197.89,416.56,200.57Zm4.59-15.26-.65-.16c.68-2.66,1.27-5.27,1.75-7.74l.65.12C422.42,180,421.83,182.64,421.15,185.31Zm3-15.66-.66-.07c.32-2.73.5-5.39.55-7.9h.67C424.65,164.22,424.46,166.9,424.14,169.65Zm-.44-15.87a48.8,48.8,0,0,0-1.48-7.75l.64-.18a49.06,49.06,0,0,1,1.5,7.86ZM182.13,140.65l-.52-.41a20.22,20.22,0,0,0,3.49-7l.64.18A20.67,20.67,0,0,1,182.13,140.65Zm237.24-2a35.59,35.59,0,0,0-4.35-6.54l.51-.43A35.58,35.58,0,0,1,420,138.4Zm-10-12a43.71,43.71,0,0,0-6.63-4.25l.31-.59a45,45,0,0,1,6.73,4.31Zm-222.64-1.19h-.66a70.66,70.66,0,0,1,.68-8l.65.09A74.08,74.08,0,0,0,186.72,125.52Zm208.77-6.19a71.28,71.28,0,0,0-7.59-2.22l.15-.64a71.92,71.92,0,0,1,7.66,2.23Zm-15.37-3.69c-2.51-.37-5.16-.66-7.88-.87l.05-.67c2.74.22,5.4.52,7.92.88Zm-15.81-1.5c-2.74-.27-5.4-.6-7.89-1l.1-.66c2.48.39,5.13.72,7.85,1Zm-15.7-2.49c-2.68-.62-5.26-1.35-7.67-2.15l.21-.63c2.39.8,5,1.51,7.61,2.13Zm-159.78-1.83-.64-.15c.6-2.62,1.32-5.21,2.14-7.7l.63.21C190.15,104.65,189.43,107.22,188.83,109.82Zm144.71-3.26a61.43,61.43,0,0,1-7-3.86l.36-.55a59.23,59.23,0,0,0,6.9,3.8ZM320.12,98c-2.19-1.78-4.26-3.64-6-5.22l.45-.49c1.73,1.57,3.79,3.42,6,5.19ZM193.79,94.77l-.61-.26a69.85,69.85,0,0,1,3.64-7.12l.57.34A69.33,69.33,0,0,0,193.79,94.77Zm114.47-7.32c-2.24-2-4.16-3.61-6.06-5.09l.4-.53c1.92,1.5,3.86,3.12,6.1,5.13ZM201.83,81.18l-.53-.41a52.66,52.66,0,0,1,5.38-5.92l.45.49A51.19,51.19,0,0,0,201.83,81.18Zm93.92-3.39c-2.19-1.4-4.49-2.72-6.85-3.93l.3-.59c2.38,1.22,4.7,2.55,6.91,4Zm-14-7.21c-2.35-1-4.86-1.86-7.43-2.7l.2-.63c2.59.84,5.11,1.76,7.48,2.72Zm-68.42-.17-.38-.55a47.66,47.66,0,0,1,7-3.88l.27.61A46.18,46.18,0,0,0,213.29,70.41Zm53.39-4.74c-2-.53-4.17-1-6.34-1.51L259,63.87l.13-.65,1.39.29c2.18.48,4.32,1,6.36,1.52ZM227.6,64l-.17-.65a56.16,56.16,0,0,1,7.85-1.46l.07.66A53.62,53.62,0,0,0,227.6,64Zm23.54-1.35a74.48,74.48,0,0,0-7.9-.5v-.66a75.59,75.59,0,0,1,8,.5Z" transform="translate(-57.31 -44.33)"/><path class="cls-61" d="M412.39,212.23l-.62-.23c.45-1.21.91-2.46,1.37-3.74l.62.23C413.3,209.77,412.84,211,412.39,212.23Z" transform="translate(-57.31 -44.33)"/><path class="cls-60" d="M575.25,213.36l21-12.07,20.06-13.17,2.21,4L598.11,204l-20.65,13.31Zm12.63-17.45a9.89,9.89,0,0,1-3.2-1.84,9.47,9.47,0,0,1-2.13-2.68,8.87,8.87,0,0,1-.95-3.18,7.74,7.74,0,0,1,.43-3.38,7.55,7.55,0,0,1,1.78-2.86,8.09,8.09,0,0,1,2.74-1.88,9.52,9.52,0,0,1,3.33-.72,9.78,9.78,0,0,1,3.65.58,9.91,9.91,0,0,1,3.17,1.84,9.34,9.34,0,0,1,2.17,2.66,8.45,8.45,0,0,1,1,3.18,7.66,7.66,0,0,1-.42,3.35,7.55,7.55,0,0,1-1.79,2.89,8.87,8.87,0,0,1-2.74,1.88,9.22,9.22,0,0,1-3.37.73A9.87,9.87,0,0,1,587.88,195.91Zm1.25-3.53a3,3,0,0,0,1.58.14,4.62,4.62,0,0,0,1.53-.55,4.84,4.84,0,0,0,1.32-1.13,5.62,5.62,0,0,0,.89-1.61,4.94,4.94,0,0,0,0-3.53,3.58,3.58,0,0,0-2.18-2.22,3.06,3.06,0,0,0-1.58-.14,4.62,4.62,0,0,0-1.53.55,4.75,4.75,0,0,0-1.31,1.11,5.19,5.19,0,0,0-.88,1.58,5,5,0,0,0,0,3.55A3.55,3.55,0,0,0,589.13,192.38Zm11.13,33.21a9.64,9.64,0,0,1-3.2-1.85,9.22,9.22,0,0,1-2.14-2.65,8.2,8.2,0,0,1-1-3.15,7.59,7.59,0,0,1,.42-3.38,7.67,7.67,0,0,1,1.79-2.89,8.87,8.87,0,0,1,2.74-1.88,9.42,9.42,0,0,1,3.34-.74,10.2,10.2,0,0,1,6.85,2.42,9.49,9.49,0,0,1,2.16,2.69,8.31,8.31,0,0,1,1,3.18,8.24,8.24,0,0,1-2.22,6.27,7.82,7.82,0,0,1-2.73,1.85,9.77,9.77,0,0,1-7,.13Zm1.25-3.53a3.13,3.13,0,0,0,1.57.14,4.7,4.7,0,0,0,2.84-1.66,5.09,5.09,0,0,0,.89-1.58,5.41,5.41,0,0,0,.31-1.88,5.47,5.47,0,0,0-.32-1.71A3.81,3.81,0,0,0,606,214a3.24,3.24,0,0,0-1.3-.84,3.05,3.05,0,0,0-1.58-.15,4.91,4.91,0,0,0-1.52.56,4.57,4.57,0,0,0-1.32,1.13,5.42,5.42,0,0,0-.9,1.61,5,5,0,0,0,0,3.53A3.56,3.56,0,0,0,601.51,222.06Z" transform="translate(-57.31 -44.33)"/><path class="cls-60" d="M122.62,62.54a6.65,6.65,0,0,1-2.26,1,6.28,6.28,0,0,1-2.28.06,5.72,5.72,0,0,1-2.07-.78,4.89,4.89,0,0,1-1.62-1.58,5,5,0,0,1-.81-2.09,5.47,5.47,0,0,1,.1-2.21,6.31,6.31,0,0,1,1-2.06,6.4,6.4,0,0,1,1.77-1.7,6.59,6.59,0,0,1,2.24-1,6.14,6.14,0,0,1,2.29-.08,5.48,5.48,0,0,1,2.07.77,5.27,5.27,0,0,1,2.43,3.67,6.08,6.08,0,0,1-.1,2.21,6.14,6.14,0,0,1-1,2.08A6.44,6.44,0,0,1,122.62,62.54Zm-1.38-2.08a2.23,2.23,0,0,0,.72-.78,3.23,3.23,0,0,0,.31-1,3,3,0,0,0-.07-1.15,3.61,3.61,0,0,0-.49-1.12A3.29,3.29,0,0,0,119.83,55a2.36,2.36,0,0,0-2,.27,2,2,0,0,0-.71.78,3.18,3.18,0,0,0-.32,1,2.93,2.93,0,0,0,.07,1.14,3.54,3.54,0,0,0,2.36,2.54A2.36,2.36,0,0,0,121.24,60.46Zm5.58,15.79,2-16,1.06-15.93,3,.42L131,60.36l-1.21,16.31Zm16.52-8.38a6.3,6.3,0,0,1-2.26,1,6.46,6.46,0,0,1-2.27.07,5.57,5.57,0,0,1-2.06-.75,5.3,5.3,0,0,1-1.62-1.58,5.12,5.12,0,0,1-.82-2.12,5.82,5.82,0,0,1,.11-2.2,6.17,6.17,0,0,1,.94-2.08,6.69,6.69,0,0,1,1.77-1.7,6.45,6.45,0,0,1,2.26-1,6.62,6.62,0,0,1,2.3-.07,5.7,5.7,0,0,1,2.07.77,5.48,5.48,0,0,1,2.44,3.69,5.22,5.22,0,0,1-.12,2.19,6.4,6.4,0,0,1-1,2.07A6.29,6.29,0,0,1,143.34,67.87ZM142,65.79a2,2,0,0,0,.71-.78,3.24,3.24,0,0,0,.32-1,3,3,0,0,0-.07-1.14,3.45,3.45,0,0,0-.48-1.1,3.49,3.49,0,0,0-1.91-1.44,2.55,2.55,0,0,0-1.06-.09,2.22,2.22,0,0,0-1,.35,2,2,0,0,0-.7.78,3,3,0,0,0-.32,1,3.06,3.06,0,0,0,.07,1.16,3.61,3.61,0,0,0,.49,1.12,3.27,3.27,0,0,0,1.88,1.41A2.35,2.35,0,0,0,142,65.79Z" transform="translate(-57.31 -44.33)"/></svg>